<svg id="Layer_1" data-name="Layer 1" xmlns="http://www.w3.org/2000/svg" viewBox="0 0 776.5 910.29"><defs><style>.cls-1,.cls-2{fill:none;}.cls-1{stroke:#29abe2;stroke-miterlimit:10;}.cls-2{stroke:#b09278;stroke-linecap:round;stroke-linejoin:round;}</style></defs><title>handdraw</title><path class="cls-1" d="M1497.5-1612.5" transform="translate(-598.5 -118.21)"/><path class="cls-1" d="M1264.5,320.5" transform="translate(-598.5 -118.21)"/><path class="cls-2" d="M1374.5,238.32s-116-74.77-85.79-90.34c18.17-9.38,19.28-16.58,19.21-21.4a8.5,8.5,0,0,0-3.32-6.64c-2.9-2-6.92-1.12-9.54-.39-13.59,3.81-26.65,12.08-35,17.53-4.76,3.12-9.83,5.82-14.3,9.34-3.65,2.89-7,5.94-12.71,7.79-3,1-7.29,1.79-7.74.81s2.93-3.33,6.16-5.48a251.8,251.8,0,0,1,23.83-14c.22-.15,3.54-2.32,3.29-4.87s-4.23-5.37-9.65-4.48c0,0-58.78,1.56-68.31-3.11s-22.24,3.11-23.83,15.57-4.77,37.38-11.12,42.06-4.77,18.69,7.94,14,34.95-15.58,28.6-45.17c0,0-4.77-10.91-8-7.79s3.18,23.36,17.48,17.13c6.68-2.91,12.22-6.72,14.07-11.42.34-.86,1.22-3.08.23-4.15a2.65,2.65,0,0,0-2.34-.55c-4,1-8.47,22.41-.84,23.91,7.94,1.56,25.42-6.23,41.31-14s20.65-3.11,20.65,4.67-12.71,14-22.24,17.14-42.9,28-65.14,21.8c0,0-12.71-6.23,22.24-21.8,0,0,7.57-2.23,8.08-1.05.38.88-3.52,3.3-4.9,4.16-19.56,12.15-46.07,14-46.07,14a136.91,136.91,0,0,1-19.07,0,16.35,16.35,0,0,0-11.36,13.59c-.71,7.27,4.31,12.23,5,12.89,0,0,14.3,4.67,11.12-17.13-.13-.41-1.06-3.27-3.06-3.71-2.22-.48-5.56,2.05-6.47,6.82a23.56,23.56,0,0,1-2.78,8.57c-4.45,8-12.32,10.89-14.7,11.68,0,0,7.94,7.79-3.18,12.46s1.59-6.23,12.71-7.79a57,57,0,0,0,19.07-6.23s-3.18-21.8,3.17-23.36-1.58,9.34-1.58,10.9c0,.76-2.28,5.6-.35,10.9,4.21,11.62,26.39,13.94,27.35,14,2.78.24,6.62.16,14.3,0,7.5-.15,9.94-.45,14.3,0a56.93,56.93,0,0,1,12.8,2.94c15.84,5.2,36.89,18.66,39.63,20.43,0,0,28.59,26.47,31.77,7.78,0,0-17.47,3.12-6.35,12.46,6.93,5.83,17.58,10.45,19.6,19.15.93,4,1,10.26-8.48,21.35,0,0-50.84,116.82-324.1,196.25s-336.81,230.52-336.81,257,8,43.61-19.06,51.4-3.18-60.75,44.48-18.69c0,0,46.08,34.27,60.37,57.63,0,0,4.77,17.13-7.94,10.9,0,0,4.77-9.34-1.59-14,0,0-60.37-74.76-84.2-49.84s44.48,73.21,84.2,104.36c0,0,38.13,37.38,46.08,6.23,0,0,7.94-29.6-23.84-43.61,0,0-6.35-3.12-1.58,6.23s73.08,62.3,85.79,68.53c0,0,11.12,7.79-1.59,18.69s-23.83,10.9-47.66-12.46c0,0-12.71-15.58,3.17-4.67s55.61,43.61,55.61,43.61,7.94-7.79,22.24,1.56,12.71,10.9,12.71,10.9l6.35-4.67s-46.07-29.6-41.3-35.83,42.89,54.52,93.73,49.84S990,1028,990,1028" transform="translate(-598.5 -118.21)"/></svg>